<svg width="99" height="35" viewBox="0 0 99 35" fill="none" xmlns="http://www.w3.org/2000/svg">
<path d="M30.88 23.34C31.04 24.34 31.34 25.08 31.78 25.56C32.24 26.04 32.95 26.36 33.91 26.52V27H24.13V26.52C25.21 26.26 26 25.91 26.5 25.47C27.02 25.03 27.28 24.48 27.28 23.82C27.28 23.56 27.24 23.14 27.16 22.56L25.66 9.45L18.67 26.07H18.31L9.91 9.36L9.01 19.77C8.95 20.35 8.92 20.89 8.92 21.39C8.92 22.89 9.22 24.05 9.82 24.87C10.44 25.67 11.43 26.22 12.79 26.52V27H4.42V26.52C5.16 26.26 5.82 25.86 6.4 25.32C6.98 24.78 7.42 24.15 7.72 23.43C8.04 22.65 8.28 21.4 8.44 19.68L9.4 8.61C9.02 7.89 8.58 7.37 8.08 7.05C7.58 6.73 6.94 6.55 6.16 6.51V6.03H13.6C13.56 6.15 13.53 6.22 13.51 6.24C13.33 6.72 13.24 7.09 13.24 7.35C13.24 7.83 13.5 8.6 14.02 9.66L19.96 21.45L24.85 9.96C25.25 9.04 25.45 8.34 25.45 7.86C25.45 7.38 25.24 6.77 24.82 6.03H32.23V6.51C31.19 6.65 30.44 6.95 29.98 7.41C29.52 7.87 29.29 8.54 29.29 9.42C29.29 9.7 29.31 9.96 29.35 10.2L29.38 10.59L30.67 21.99C30.69 22.13 30.71 22.26 30.73 22.38C30.75 22.5 30.8 22.82 30.88 23.34ZM66.5481 8.04C67.9481 9.44 68.8881 11.07 69.3681 12.93C69.8481 14.79 69.8381 16.66 69.3381 18.54C68.8581 20.4 67.9281 22.03 66.5481 23.43C65.5081 24.45 64.3281 25.23 63.0081 25.77C61.6881 26.31 60.3081 26.58 58.8681 26.58C57.4481 26.58 56.0781 26.32 54.7581 25.8C53.7381 25.4 52.8081 24.84 51.9681 24.12C51.1281 24.82 50.2081 25.37 49.2081 25.77C47.8881 26.31 46.5081 26.58 45.0681 26.58C43.6481 26.58 42.2781 26.32 40.9581 25.8C39.6381 25.28 38.4581 24.5 37.4181 23.46C35.9981 22.04 35.0381 20.4 34.5381 18.54C34.0581 16.66 34.0581 14.79 34.5381 12.93C35.0381 11.07 35.9781 9.44 37.3581 8.04C38.3981 7 39.5881 6.21 40.9281 5.67C42.2881 5.13 43.6781 4.86 45.0981 4.86C46.5181 4.86 47.8881 5.13 49.2081 5.67C50.2081 6.09 51.1281 6.64 51.9681 7.32C52.8081 6.64 53.7381 6.09 54.7581 5.67C56.0981 5.13 57.4781 4.86 58.8981 4.86C60.3181 4.86 61.6881 5.13 63.0081 5.67C64.3281 6.21 65.5081 7 66.5481 8.04ZM46.2981 23.55C47.3581 22.99 48.4181 22.22 49.4781 21.24C48.9781 20.4 48.6081 19.5 48.3681 18.54C47.8681 16.66 47.8581 14.79 48.3381 12.93C48.8381 11.07 49.7781 9.44 51.1581 8.04C51.2381 7.98 51.3481 7.88 51.4881 7.74C50.9481 7.36 50.3781 7.09 49.7781 6.93C48.8181 6.65 47.7981 6.61 46.7181 6.81C45.6581 7.01 44.5581 7.44 43.4181 8.1C42.2981 8.76 41.2081 9.62 40.1481 10.68C39.0881 11.72 38.2281 12.81 37.5681 13.95C36.9081 15.09 36.4781 16.2 36.2781 17.28C36.0981 18.34 36.1481 19.35 36.4281 20.31C36.7081 21.27 37.2281 22.12 37.9881 22.86C39.2081 24.08 40.7581 24.66 42.6381 24.6C43.7981 24.56 45.0181 24.21 46.2981 23.55ZM50.2881 20.46C51.3081 19.42 52.1281 18.37 52.7481 17.31C53.4081 16.19 53.8281 15.1 54.0081 14.04C54.2081 12.98 54.1681 11.98 53.8881 11.04C53.8881 11.02 53.8681 10.94 53.8281 10.8C52.8281 11.82 52.0081 12.87 51.3681 13.95C50.7081 15.09 50.2781 16.2 50.0781 17.28C49.8981 18.34 49.9481 19.35 50.2281 20.31C50.2481 20.33 50.2581 20.36 50.2581 20.4C50.2781 20.44 50.2881 20.46 50.2881 20.46ZM66.5481 17.31C67.2081 16.19 67.6281 15.1 67.8081 14.04C68.0081 12.98 67.9681 11.98 67.6881 11.04C67.4281 10.08 66.9081 9.22 66.1281 8.46C65.3681 7.7 64.5081 7.19 63.5481 6.93C62.6081 6.65 61.5981 6.61 60.5181 6.81C59.4581 7.01 58.3681 7.44 57.2481 8.1C56.2881 8.66 55.3481 9.36 54.4281 10.2C54.9281 11.06 55.3081 11.97 55.5681 12.93C56.0481 14.79 56.0381 16.66 55.5381 18.54C55.0581 20.4 54.1281 22.03 52.7481 23.43C52.7281 23.43 52.6981 23.45 52.6581 23.49C52.6381 23.51 52.6181 23.53 52.5981 23.55C53.6781 24.31 54.9581 24.66 56.4381 24.6C57.5981 24.56 58.8181 24.21 60.0981 23.55C61.3781 22.87 62.6581 21.9 63.9381 20.64C65.0381 19.54 65.9081 18.43 66.5481 17.31ZM87.3759 6.51V6.03H94.6959V6.51C93.5959 6.81 92.8559 7.31 92.4759 8.01C92.0959 8.69 91.9059 9.87 91.9059 11.55V27H91.4559L74.6259 9.54V19.83C74.6259 20.97 74.6959 21.89 74.8359 22.59C74.9759 23.29 75.1859 23.89 75.4659 24.39C76.1659 25.51 77.2959 26.21 78.8559 26.49V26.97H70.8459V26.49C72.2259 25.99 73.1459 25.03 73.6059 23.61C73.7659 23.13 73.8759 22.61 73.9359 22.05C73.9959 21.49 74.0259 20.77 74.0259 19.89V8.91C73.2459 8.09 72.6359 7.53 72.1959 7.23C71.7759 6.91 71.2859 6.67 70.7259 6.51V6.03H76.6659C76.9259 6.47 77.1959 6.86 77.4759 7.2C77.5359 7.26 77.6459 7.39 77.8059 7.59C77.9659 7.77 78.0659 7.89 78.1059 7.95L78.3759 8.25L91.3359 22.11V11.55C91.3359 10.47 91.1959 9.59 90.9159 8.91C90.6559 8.21 90.2359 7.67 89.6559 7.29C89.0759 6.91 88.3159 6.65 87.3759 6.51Z" fill="white"/>
</svg>
